<svg id="Layer_1" data-name="Layer 1" xmlns="http://www.w3.org/2000/svg" viewBox="0 0 612 205.9"><defs><style>.cls-2{fill:#384850}.cls-4{fill:#81cac4}.cls-5{fill:#ffd550}</style><clipPath id="clip-path"><path fill="none" d="M0 0h612v205.9H0z"/></clipPath></defs><path class="cls-2" d="M336.82 157.33h3.08l5.37 18.8 5.65-17.53h2.61l5.64 17.53 5.35-18.8h3.14l-6.82 23.28h-2.97l-5.61-17.3-5.68 17.3h-2.94l-6.82-23.28zm50.11 17.5h-9.49l-2.07 5.78h-3.28l8.91-23.28h2.34l8.92 23.28H389zm-1-2.64l-3.78-10.55-3.77 10.55z"/><g clip-path="url(#clip-path)"><path class="cls-2" d="M398.18 174.33l2.94-.73a5.22 5.22 0 0 0 5.51 4.71c3 0 4.68-1.57 4.68-3.75s-1.37-3.4-5.25-4.91c-4.78-1.83-6.45-3.54-6.45-6.68 0-3.6 2.78-6 6.85-6a7.36 7.36 0 0 1 6.78 3.94l-2.5 1.54a4.89 4.89 0 0 0-4.38-2.81 3.5 3.5 0 0 0-3.77 3.27c0 1.94 1.47 3 5.07 4.38 5.12 1.94 6.65 3.77 6.65 7.05 0 4-2.9 6.68-7.71 6.68-4.41 0-7.79-2.64-8.42-6.65m25.15-17.04h2.97v9.99h11.46v-9.99h3v23.28h-3v-10.52H426.3v10.52h-2.97v-23.28zm28.45 0h2.97v23.28h-2.97zm31.1 0v23.28h-3.2l-10.9-18.2v18.2h-2.97v-23.28h3.18l10.92 18.14v-18.14h2.97zm30.29 11.06v12.22h-2.27l-.4-3.21c-1.3 2.31-4 3.61-7.41 3.61-6.69 0-10.76-5-10.76-12.09 0-6.92 3.84-12 11-12 4.84 0 8.21 2.37 9.78 6.51l-2.74 1.07c-1.13-3.07-3.44-4.74-7.08-4.74-5.24 0-7.95 3.54-7.95 9.08s2.57 9.32 8 9.32c3.94 0 7-2 7-6.61V171h-5.48v-2.57zm15.1-8.32h-7.82v-2.74h18.64v2.74h-7.82v20.54h-3v-20.54zm16.8 8.93c0-7.25 4.37-12.06 10.82-12.06s10.82 4.81 10.82 12.06-4.37 12-10.82 12-10.82-4.81-10.82-12m18.67 0c0-5.65-3.07-9.22-7.85-9.22S548 163.34 548 169s3.07 9.18 7.85 9.18 7.85-3.57 7.85-9.18m29.5-11.67v23.28h-3.21l-10.89-18.2v18.2h-2.97v-23.28h3.17l10.93 18.14v-18.14h2.97zM206.61 48.27h57.16v12.28h-43.89v23.68h40.29v12.28h-40.29v25.91h43.89v12.27h-57.16V48.27zm158.66 59.89h-42.89c.49 9.8 6.32 16.12 16.73 16.12a19.35 19.35 0 0 0 15.63-6.94l8.92 7.68c-6.94 7.57-14.63 10.79-24.67 10.79-20.21 0-29.39-14.63-29.39-31.37 0-16.36 8.93-32 28.4-32 19 0 27.65 14.14 27.65 30.13a41.85 41.85 0 0 1-.38 5.58m-11.9-10.29v-.25c-.25-8.68-6.32-14.5-15.37-14.5-9.8 0-14.76 7.19-15.62 14.75zm-56.99 26.67q-4.85 0-4.84-4.84V48.28h-12.77v72.28c0 10.42 5.58 15.25 13.51 15.25a31.07 31.07 0 0 0 13.62-3.48 40.08 40.08 0 0 1-5-8.87 12.21 12.21 0 0 1-4.48 1.07m72.7-50.96h14.01l16.24 44.63 16.37-44.63h13.88l-24.92 61.12h-10.66l-24.92-61.12zm117.29 22.69v38.44h-11.66l-1-8.68c-4 6.2-11 9.79-19.71 9.79-13 0-21.7-7.81-21.7-19.46 0-6.95 3-12.16 8.43-14.88 4.22-2.11 9.92-3.1 18.6-3.1h14.26v-2.11c0-7.94-4.84-12.65-12.9-12.65-6.69 0-12.65 3.23-17.23 9.55l-9.3-7.81c7.07-8.68 15.74-12.9 26.66-12.9 15.87 0 25.54 8.93 25.54 23.81m-12.77 12.15v-.25h-12.76c-7.07 0-10.67.62-13 2.48-1.86 1.24-2.73 3.35-2.73 6 0 5.21 4.34 8.44 11.28 8.44 9.92 0 17.24-7 17.24-16.62m58.75-24.6V73.57h-15V48.9l-12.77 9.42v15.25h-10v10.29h10v36.7c0 10.41 5.58 15.25 13.52 15.25.64 0 1.27 0 1.89-.08a31.82 31.82 0 0 0 11.73-3.41 38.88 38.88 0 0 1-4.42-7.48c-.21-.46-.43-.91-.62-1.38a12.3 12.3 0 0 1-4.49 1.07h-.53c-2.86-.17-4.31-1.76-4.31-4.8V83.86zm61.22 24.3h-42.9c.49 9.8 6.32 16.12 16.74 16.12a19.33 19.33 0 0 0 15.62-6.94L592 125c-6.95 7.57-14.63 10.79-24.68 10.79-20.21 0-29.38-14.63-29.38-31.37 0-16.36 8.92-32 28.39-32 19 0 27.65 14.14 27.65 30.13a41.84 41.84 0 0 1-.37 5.58m-11.9-10.29v-.25c-.25-8.68-6.33-14.5-15.38-14.5-9.79 0-14.75 7.19-15.62 14.75z"/><path class="cls-4" d="M75.4 100.69v-.34l-19.13-.53-19.1-.52-19.12-.53c0 .64-.05 1.27-.05 1.92a76.61 76.61 0 0 0 2.07 17.65L38.7 114l18.62-4.37L76 105.22a18.8 18.8 0 0 1-.57-4.53"/><path class="cls-5" d="M88.79 62.85L86 43.93a57.2 57.2 0 0 0-29.51 13.79 57.78 57.78 0 0 0-12.74 16.21l16.9 9 16.91 9A19.12 19.12 0 0 1 91.62 81.8z"/><path class="cls-4" d="M167 76.07l-18.1 6.19-18.11 6.19-18.11 6.2a19.12 19.12 0 0 1 1 6 19.57 19.57 0 0 1-.35 3.62l18.82 3.43 18.85 3.48 18.83 3.43a77 77 0 0 0 1.28-13.92A76.21 76.21 0 0 0 167 76.07"/><path class="cls-5" d="M101.63 118.45l7.21 17.73a38.35 38.35 0 0 0 17.58-14.34l-16-10.5a19.21 19.21 0 0 1-8.8 7.11"/><path d="M80.3 113.44L66 126.14l-14.34 12.69A57.32 57.32 0 0 0 83.54 157l3.66-18.78 3.66-18.79a19.11 19.11 0 0 1-10.56-6M105 24.88l-2.63 19-2.63 19-2.64 19a18.93 18.93 0 0 1 5 1.41l7-17.83 7-17.84 7-17.82a75.93 75.93 0 0 0-18-4.79" fill="#e26851"/></g></svg>